<?xml version="1.0" encoding="UTF-8"?>
<svg version="1.1" xmlns="http://www.w3.org/2000/svg" width="512" height="512">
<path d="M0 0 C4.70072569 0.00257949 9.40144969 0.00017088 14.10217547 -0.00138617 C21.98646154 -0.0031917 29.87073815 -0.00084425 37.75502276 0.00395441 C46.79822828 0.00939577 55.84141123 0.00762868 64.8846162 0.00212801 C72.72835569 -0.00244737 80.57208849 -0.00303232 88.41582888 -0.00043333 C93.06584451 0.00110511 97.71584962 0.00139164 102.36586452 -0.00196981 C161.95732231 -0.03894029 221.64905806 0.67672816 266.52284503 45.39604425 C307.25485302 88.55342575 305.42703112 150.96044316 305.38763928 206.21640754 C305.38506285 210.97899998 305.38746759 215.74159075 305.38902545 220.50418329 C305.39083184 228.49279873 305.38848124 236.48140485 305.38368487 244.47001886 C305.37824337 253.63762346 305.38001035 262.80520579 305.38551128 271.97280985 C305.39008419 279.91927276 305.39067277 287.86572906 305.38807261 295.81219286 C305.38653285 300.52534866 305.3862515 305.2384941 305.3896091 309.95164919 C305.42180959 362.29518354 305.42180959 362.29518354 303.00331378 380.3218255 C302.87545489 381.29829035 302.74759601 382.27475519 302.61586261 383.28080988 C298.17673302 415.12931297 286.73436619 444.69744604 264.25331378 468.1343255 C263.49534503 468.95545832 262.73737628 469.77659113 261.95643878 470.62260675 C229.78480724 504.42384709 181.66969521 510.97655362 137.25331378 512.1343255 C124.29910215 512.35371127 111.33982923 512.32244077 98.38417935 512.33451414 C95.35943465 512.33747665 92.33469347 512.34158678 89.30995059 512.34601831 C79.7861427 512.35964056 70.26234317 512.36933321 60.73852623 512.37322021 C49.85565474 512.37769028 38.9729095 512.39521181 28.09007633 512.4242208 C19.60176267 512.44603871 11.11348401 512.45593503 2.62514269 512.45726132 C-2.40971724 512.45829497 -7.44445773 512.46388702 -12.47928739 512.48208094 C-66.23423123 512.66523044 -119.82948114 509.80990864 -161.74668622 472.1343255 C-162.55106122 471.41502863 -163.35543622 470.69573175 -164.18418622 469.954638 C-195.92158178 439.91746006 -204.90224945 395.05650167 -206.74668622 353.1343255 C-206.9228227 346.69898257 -206.90409466 340.26077975 -206.90781903 333.82353449 C-206.91246007 331.92913453 -206.91748641 330.03473548 -206.9228642 328.14033747 C-206.93587195 323.03400267 -206.94241094 317.92768096 -206.94687486 312.82133222 C-206.94982629 309.61404215 -206.95393489 306.4067555 -206.95837903 303.19946718 C-206.9720273 293.11554195 -206.98170532 283.03162472 -206.98558092 272.9476909 C-206.99004638 261.39971631 -207.00753506 249.85186098 -207.03658152 238.30392259 C-207.05837995 229.31808523 -207.06829487 220.33228095 -207.06962204 211.34641749 C-207.07065778 206.00801306 -207.07629605 200.6697211 -207.09444165 195.33134508 C-207.27151995 140.03009073 -204.58634308 85.42343685 -164.74668622 43.1343255 C-164.14727216 42.47045832 -163.5478581 41.80659113 -162.93027997 41.12260675 C-132.52416607 8.74633428 -86.78190312 1.78996983 -44.62806439 0.3372674 C-29.75711599 -0.09653306 -14.87583605 -0.01076139 0 0 Z M-132.44199872 74.7437005 C-162.63231192 106.0597542 -161.02992649 154.77918487 -161.18433475 195.13918138 C-161.20398861 199.82215302 -161.23361208 204.50506392 -161.26177716 209.18799067 C-161.30758259 217.05085721 -161.34604023 224.91373227 -161.37974286 232.77665949 C-161.41846152 241.79423634 -161.46777377 250.8117058 -161.52307314 259.8291952 C-161.57663119 268.58941127 -161.62355385 277.34965055 -161.6672585 286.10992098 C-161.68570566 289.79779947 -161.70616583 293.48565796 -161.72835088 297.1735158 C-163.80338763 357.93489846 -163.80338763 357.93489846 -146.74668622 415.1343255 C-146.28520185 416.0005755 -145.82371747 416.8668255 -145.34824872 417.7593255 C-133.485424 438.73227529 -115.24311396 451.63740112 -92.48057294 458.189013 C-61.87891654 466.42769922 -29.10942309 465.44884994 2.33971262 465.40297651 C7.02346489 465.39779974 11.70721061 465.40263926 16.39096332 465.40574884 C24.24296259 465.40935428 32.09492384 465.40467954 39.9469173 465.39506769 C48.94474674 465.3841784 57.94248552 465.3877262 66.9403128 465.3987205 C74.75699401 465.40787858 82.57364838 465.40903791 90.39033324 465.40384316 C95.01912569 465.40077117 99.64787593 465.40017908 104.27666545 465.40691614 C173.16087046 466.25491449 173.16087046 466.25491449 231.51893878 433.95854425 C262.24122542 401.84528794 258.57995123 349.67638885 258.52196479 308.57558322 C258.51680508 303.75354307 258.52162367 298.93150949 258.52473712 294.10946894 C258.52835009 286.01495712 258.52365042 277.92048209 258.51405597 269.82597589 C258.50319516 260.5579246 258.50669067 251.28996153 258.51770878 242.0219124 C258.5268809 233.97510281 258.52801866 225.92831928 258.52283144 217.88150615 C258.51976311 213.11503439 258.51915591 208.3486036 258.52590442 203.58213472 C258.54738673 185.9572801 258.48819674 168.37341536 257.34608722 150.77958918 C257.26654929 149.5537049 257.18701137 148.32782063 257.1050632 147.06478834 C255.12290677 119.75455465 248.14117488 92.25659376 227.25331378 73.1343255 C189.46468483 43.10331182 137.18569244 45.9629663 91.54432774 46 C87.34947805 46.00258108 83.15463025 46.00017021 78.95978045 45.99861383 C71.9175655 45.99680756 64.87536111 45.99915648 57.83314776 46.00395441 C49.77333603 46.00938338 41.71354967 46.007638 33.65373856 46.00212801 C26.65331754 45.99753966 19.65290401 45.99697418 12.65248197 45.99956667 C8.50702458 46.0010998 4.36157895 46.00140754 0.21612239 45.99803019 C-70.94445671 43.83503907 -70.94445671 43.83503907 -132.44199872 74.7437005 Z " fill="#000000" transform="translate(206.74668622016907,-0.13432550430297852)"/>
<path d="M0 0 C2.48512095 2.18552368 4.88845843 4.43264864 7.27734375 6.72265625 C8.0971875 7.47933594 8.91703125 8.23601562 9.76171875 9.015625 C32.89384277 31.03424616 46.52180347 63.96405724 47.48046875 95.74609375 C48.03829017 133.93731938 35.55971487 167.3140756 9.13354492 195.20361328 C-11.33753016 216.19768435 -37.9240702 228.45383929 -66.72265625 232.72265625 C-67.59921875 232.85414063 -68.47578125 232.985625 -69.37890625 233.12109375 C-104.16553814 237.41144502 -139.34836315 226.69510984 -166.84765625 205.41015625 C-193.93140636 183.82343735 -211.68176414 152.71492714 -215.97265625 118.28515625 C-218.28440161 96.9276434 -216.13164941 75.93101784 -208.72265625 55.72265625 C-208.35398438 54.70300781 -207.9853125 53.68335938 -207.60546875 52.6328125 C-194.7523663 19.61363553 -168.88825743 -5.95115973 -136.72265625 -20.27734375 C-90.91771409 -38.90443577 -38.08828944 -31.85864096 0 0 Z M-141.72265625 38.72265625 C-142.48449219 39.38910156 -143.24632812 40.05554688 -144.03125 40.7421875 C-159.07555921 54.79571032 -168.83755854 76.17299633 -169.72265625 96.72265625 C-169.76261719 97.47289062 -169.80257812 98.223125 -169.84375 98.99609375 C-170.53164948 124.00326304 -160.21055382 145.5599696 -143.34765625 163.41015625 C-129.32130745 176.84030678 -109.17873792 185.88466022 -89.72265625 186.72265625 C-88.97242188 186.76261719 -88.2221875 186.80257812 -87.44921875 186.84375 C-65.31570783 187.45260062 -44.18074135 179.38882254 -27.72265625 164.72265625 C-26.96339844 164.0575 -26.20414063 163.39234375 -25.421875 162.70703125 C-11.13926869 149.38646578 -0.5740602 128.30494709 0.27734375 108.72265625 C0.32890625 107.72234375 0.38046875 106.72203125 0.43359375 105.69140625 C1.08166806 81.71265691 -7.05264187 60.51746716 -23.453125 43.02734375 C-39.99076355 26.23352835 -60.91813559 16.60154036 -84.72265625 16.34765625 C-105.96577419 16.57444193 -125.87411465 24.78109364 -141.72265625 38.72265625 Z " fill="#000000" transform="translate(340.72265625,154.27734375)"/>
<path d="M0 0 C7.70649701 6.3364531 11.81005015 13.67540745 13.03125 23.59765625 C13.41250941 32.60490986 10.62427044 40.40920439 4.8203125 47.26953125 C-1.98150069 53.98150917 -9.75758597 56.93182104 -19.25 57.3125 C-28.17925044 56.82371593 -34.26436655 53.74199855 -40.9375 48 C-47.80157554 40.02283112 -50.60855713 32.32798676 -50.12890625 21.60546875 C-48.82661954 13.08018978 -44.56878443 5.90905556 -38 0.375 C-26.53771641 -7.77937625 -11.61305809 -8.11808061 0 0 Z " fill="#000000" transform="translate(411.25,93.6875)"/>
</svg>
