<?xml version="1.0" encoding="UTF-8"?>
<svg version="1.1" xmlns="http://www.w3.org/2000/svg" width="512" height="512">
<path d="M0 0 C19.03251729 17.68904549 27.55010541 44.45863806 32.22265625 69.23046875 C32.37387939 70.02622314 32.52510254 70.82197754 32.6809082 71.6418457 C35.68474188 88.94738774 36.26489262 106.35142209 36.19970703 123.87231445 C36.19914112 126.04287206 36.19946298 128.21343004 36.20059204 130.38398743 C36.20115952 136.20490687 36.18950454 142.02574177 36.17544413 147.84664178 C36.16283459 153.95644707 36.16175829 160.06625487 36.15939331 166.17607117 C36.1532083 177.71391239 36.13683833 189.25171514 36.11669433 200.78953952 C36.09003336 216.40319069 36.07933858 232.01685258 36.0676899 247.63052082 C36.04895519 272.18469888 36.00908978 296.7387958 35.97265625 321.29296875 C0.66265625 321.29296875 -34.64734375 321.29296875 -71.02734375 321.29296875 C-71.06472656 307.29246094 -71.10210937 293.29195313 -71.140625 278.8671875 C-71.17091548 269.97590172 -71.2019502 261.08462874 -71.23632812 252.19335938 C-71.29070738 238.09351794 -71.3421249 223.99371205 -71.3737793 209.89379883 C-71.39685239 199.62252366 -71.4303533 189.35134266 -71.47604531 179.08014232 C-71.49985263 173.64855987 -71.51866285 168.21706995 -71.52495766 162.78543663 C-71.53106555 157.65788263 -71.55126758 152.53056502 -71.58161926 147.40309906 C-71.5903091 145.53569248 -71.59414123 143.66825488 -71.59235191 141.80082893 C-71.57808394 120.01080642 -73.17557154 94.90216783 -88.65234375 77.98046875 C-95.23678544 71.83751261 -104.09576753 67.57353957 -113.02734375 66.29296875 C-113.93355469 66.16019531 -114.83976563 66.02742188 -115.7734375 65.890625 C-132.51384787 64.0305794 -150.08093101 66.53011784 -163.9765625 76.58984375 C-179.8030596 89.73337277 -184.65607973 109.45388874 -186.82965231 129.08756375 C-187.46536024 136.17939045 -187.33798861 143.32346213 -187.34619141 150.43725586 C-187.35551198 152.31137006 -187.36568373 154.18548018 -187.37663269 156.05958557 C-187.403707 161.0998503 -187.41901439 166.14008745 -187.43206072 171.18040538 C-187.44779107 176.46548132 -187.47454921 181.75050173 -187.50009155 187.03553772 C-187.54670521 197.0223199 -187.58353309 207.00911272 -187.61676443 216.99594742 C-187.66229266 230.50613051 -187.72310141 244.01624451 -187.78301239 257.52637005 C-187.8768711 278.78186815 -187.9504554 300.03738679 -188.02734375 321.29296875 C-223.33734375 321.29296875 -258.64734375 321.29296875 -295.02734375 321.29296875 C-295.02734375 208.43296875 -295.02734375 95.57296875 -295.02734375 -20.70703125 C-261.36734375 -20.70703125 -227.70734375 -20.70703125 -193.02734375 -20.70703125 C-192.69734375 -5.85703125 -192.36734375 8.99296875 -192.02734375 24.29296875 C-189.38734375 20.33296875 -186.74734375 16.37296875 -184.02734375 12.29296875 C-182.16118288 9.97448014 -180.37111594 7.81256909 -178.33984375 5.66796875 C-177.58791748 4.86540649 -177.58791748 4.86540649 -176.82080078 4.04663086 C-171.40617071 -1.57986148 -165.4162819 -6.24375006 -159.02734375 -10.70703125 C-158.25519531 -11.25746094 -157.48304688 -11.80789062 -156.6875 -12.375 C-110.76485609 -42.47894759 -40.78749536 -34.34322827 0 0 Z " fill="#000000" transform="translate(476.02734375,190.70703125)"/>
<path d="M0 0 C35.31 0 70.62 0 107 0 C107 112.86 107 225.72 107 342 C71.69 342 36.38 342 0 342 C0 229.14 0 116.28 0 0 Z " fill="#000000" transform="translate(8,170)"/>
<path d="M0 0 C13.22564534 10.21235557 20.9204488 24.78950936 23.83984375 41.07666016 C25.71762356 58.48880021 21.16587084 74.82943193 10.67578125 88.76025391 C0.38168016 101.48720525 -14.43754781 109.75389111 -30.75390625 111.76416016 C-48.05894084 113.25662493 -63.72127544 108.97619827 -77.6875 98.58056641 C-89.23022669 88.83088464 -97.08536633 75.68928605 -99.75390625 60.76416016 C-101.28768853 40.2707134 -98.12088105 23.47549725 -84.44140625 7.45166016 C-61.8747577 -16.37505507 -26.41259354 -18.61087813 0 0 Z " fill="#000000" transform="translate(99.75390625,12.23583984375)"/>
</svg>
